<?xml version="1.0" standalone="no"?>
<!DOCTYPE svg PUBLIC "-//W3C//DTD SVG 20010904//EN"
 "http://www.w3.org/TR/2001/REC-SVG-20010904/DTD/svg10.dtd">
<svg version="1.0" xmlns="http://www.w3.org/2000/svg"
 width="440.000000pt" height="440.000000pt" viewBox="0 0 440.000000 440.000000"
 preserveAspectRatio="xMidYMid meet">
<metadata>
Created by potrace 1.11, written by Peter Selinger 2001-2013
</metadata>
<g transform="translate(0.000000,440.000000) scale(0.100000,-0.100000)"
fill="#000000" stroke="none">
<path d="M228 4070 c-132 -5 -139 -6 -163 -31 -15 -14 -30 -41 -34 -60 -3 -19
-6 -586 -6 -1260 1 -1145 2 -1228 18 -1252 40 -62 -4 -59 797 -59 538 0 730
-3 730 -12 0 -6 -7 -42 -15 -81 -9 -38 -18 -83 -20 -100 -3 -16 -15 -75 -26
-131 l-21 -101 -234 -234 c-128 -129 -240 -247 -248 -263 -17 -34 -11 -82 13
-116 40 -56 -17 -53 1193 -53 1066 0 1118 1 1145 18 15 10 33 26 40 34 18 25
24 76 13 107 -6 16 -118 137 -249 269 l-239 240 -41 206 c-23 114 -41 209 -41
212 0 3 329 5 731 5 708 0 732 0 757 19 62 45 58 -38 58 1321 l-1 1241 -21 28
c-43 58 90 54 -2037 56 -1079 1 -2024 0 -2099 -3z m3913 -247 c3 -27 4 -2150
1 -2160 -3 -10 -400 -13 -1938 -13 l-1934 0 0 33 c0 48 -1 1948 0 2055 l0 92
1935 0 c1064 0 1935 -3 1936 -7z m-1537 -2483 c9 -37 18 -85 22 -107 3 -21 12
-65 20 -98 7 -33 14 -67 14 -76 0 -14 -45 -16 -455 -16 -250 0 -455 4 -455 8
0 4 16 84 35 178 19 93 35 172 35 174 0 3 173 5 384 5 l385 0 15 -68z m280
-660 l120 -120 -792 0 c-436 0 -792 3 -792 7 0 4 51 57 113 119 l112 113 560
0 560 1 119 -120z"/>
<path d="M1305 3570 c-2 -3 -25 -94 -50 -201 -25 -106 -62 -259 -81 -339 -19
-80 -63 -266 -99 -415 -36 -148 -89 -370 -119 -492 l-53 -223 122 0 123 0 8
38 c4 20 8 39 9 42 1 3 5 21 9 40 8 36 88 369 131 545 13 55 26 109 28 120 3
17 17 6 83 -60 132 -132 268 -317 430 -585 l82 -135 131 -3 c92 -2 131 1 131
9 0 23 -146 274 -253 434 -109 163 -260 354 -314 398 -13 10 -23 22 -23 26 0
4 44 43 98 87 53 43 108 88 122 100 247 211 484 416 515 445 22 20 72 64 110
99 39 34 71 66 73 70 1 4 -64 7 -146 7 l-149 1 -44 -42 c-191 -180 -780 -676
-802 -676 -2 0 4 33 14 73 11 39 21 81 23 92 2 11 25 103 49 205 57 232 77
318 77 334 0 10 -27 13 -115 13 -64 0 -118 -3 -120 -7z"/>
<path d="M2712 3388 c-205 -17 -346 -98 -410 -236 -24 -50 -27 -69 -27 -157 1
-84 5 -108 24 -148 25 -51 104 -128 160 -156 46 -23 169 -63 296 -96 177 -46
229 -64 279 -95 63 -40 73 -51 95 -101 34 -74 8 -184 -55 -241 -147 -130 -529
-107 -727 45 -26 21 -49 37 -51 37 -3 0 -18 -25 -35 -56 l-31 -57 36 -32 c47
-43 160 -98 259 -126 69 -20 103 -23 245 -23 153 0 170 2 243 27 133 46 205
105 255 207 23 48 26 67 26 150 1 116 -22 174 -92 238 -63 59 -145 95 -304
138 -299 80 -372 108 -425 165 -81 88 -60 236 45 316 62 47 129 65 257 69 132
3 222 -16 337 -74 l77 -39 25 59 c15 33 24 63 22 67 -3 4 -33 22 -68 39 -99
50 -193 73 -353 86 -11 1 -57 -2 -103 -6z"/>
</g>
</svg>
